<mxfile host="Electron" modified="2023-05-26T06:32:45.932Z" agent="Mozilla/5.0 (Macintosh; Intel Mac OS X 10_15_7) AppleWebKit/537.36 (KHTML, like Gecko) draw.io/21.2.8 Chrome/112.0.5615.165 Electron/24.2.0 Safari/537.36" etag="VnVJc_DwZpvQl41R7WgT" version="21.2.8" type="device">
  <diagram name="Страница 1" id="8BT6tJDRdHSlF5LA3HyA">
    <mxGraphModel dx="1026" dy="688" grid="1" gridSize="10" guides="1" tooltips="1" connect="1" arrows="1" fold="1" page="1" pageScale="1" pageWidth="827" pageHeight="1169" math="0" shadow="0">
      <root>
        <mxCell id="0" />
        <mxCell id="1" parent="0" />
        <mxCell id="SOJtODhlsWUgwSGeWYgd-3" style="edgeStyle=orthogonalEdgeStyle;rounded=0;orthogonalLoop=1;jettySize=auto;html=1;entryX=0;entryY=0.5;entryDx=0;entryDy=0;" edge="1" parent="1" source="SOJtODhlsWUgwSGeWYgd-1" target="SOJtODhlsWUgwSGeWYgd-2">
          <mxGeometry relative="1" as="geometry" />
        </mxCell>
        <mxCell id="SOJtODhlsWUgwSGeWYgd-4" value="alert webhook&lt;br&gt;HTTP" style="edgeLabel;html=1;align=center;verticalAlign=middle;resizable=0;points=[];" vertex="1" connectable="0" parent="SOJtODhlsWUgwSGeWYgd-3">
          <mxGeometry x="0.1529" y="2" relative="1" as="geometry">
            <mxPoint x="-13" as="offset" />
          </mxGeometry>
        </mxCell>
        <mxCell id="SOJtODhlsWUgwSGeWYgd-1" value="" style="shape=image;verticalLabelPosition=bottom;labelBackgroundColor=default;verticalAlign=top;aspect=fixed;imageAspect=0;image=https://www.influxdata.com/wp-content/uploads/Grafana-logo-2.png;" vertex="1" parent="1">
          <mxGeometry x="70" y="260" width="80" height="80" as="geometry" />
        </mxCell>
        <mxCell id="SOJtODhlsWUgwSGeWYgd-6" value="publish not snoozed alert&lt;br&gt;WEB SOCKET" style="edgeStyle=orthogonalEdgeStyle;rounded=0;orthogonalLoop=1;jettySize=auto;html=1;exitX=1;exitY=0.5;exitDx=0;exitDy=0;entryX=0;entryY=0.5;entryDx=0;entryDy=0;" edge="1" parent="1" source="SOJtODhlsWUgwSGeWYgd-2" target="SOJtODhlsWUgwSGeWYgd-5">
          <mxGeometry relative="1" as="geometry" />
        </mxCell>
        <mxCell id="SOJtODhlsWUgwSGeWYgd-2" value="alert-manager" style="rounded=1;whiteSpace=wrap;html=1;" vertex="1" parent="1">
          <mxGeometry x="294" y="270" width="120" height="60" as="geometry" />
        </mxCell>
        <mxCell id="SOJtODhlsWUgwSGeWYgd-5" value="" style="shape=image;verticalLabelPosition=bottom;labelBackgroundColor=default;verticalAlign=top;aspect=fixed;imageAspect=0;image=https://a.slack-edge.com/80588/marketing/img/meta/slack_hash_256.png;" vertex="1" parent="1">
          <mxGeometry x="590" y="265" width="70" height="70" as="geometry" />
        </mxCell>
      </root>
    </mxGraphModel>
  </diagram>
</mxfile>
